# xmcd
#
# Track frame offsets: 
#        150
#        12224
#        25003
#        35533
#        47211
#        59601
#        71582
#        84106
#        94720
#        108117
#        120182
#        133795
#        147875
#        160991
#        174291
#        188470
#        200129
#        212471
#        222596
#        235878
#        249104
#        267765
#        278727
#
# Disc length: 3880 seconds
#
# Revision: 2
# Processed by: cddbd v1.5.2PL0 Copyright (c) Steve Scherf et al.
# Submitted via: ExactAudioCopy v1.3
#
DISCID=360f2617
DTITLE=Kay Starr - Eight Classic Albums
DYEAR=1900
DGENRE=Oldies
TTITLE0=I´m Alone Because I Love You
TTITLE1=I Cry By Night
TTITLE2=Byby Won´t You Please Come Home
TTITLE3=More Than You Know
TTITLE4=Lover Man
TTITLE5=My Kinda Love
TTITLE6=It Had To Be You
TTITLE7=Whispering Grass
TTITLE8=Nevertheless 
TTITLE9=What Do You See In Her
TTITLE10=P.S.  I Love You
TTITLE11=I´m Still In Love With You
TTITLE12=Pins And Needles
TTITLE13=Crazy
TTITLE14=Four Walls
TTITLE15=My Last Date
TTITLE16=Blues Stay Away From Me
TTITLE17=Walk On By
TTITLE18=Oh Lonesome Me
TTITLE19=I Can´t Help It
TTITLE20=I Really Don´t What To Know
TTITLE21=Singin´ The Blues
TTITLE22=Don´t Worry
EXTD=
EXTT0=
EXTT1=
EXTT2=
EXTT3=
EXTT4=
EXTT5=
EXTT6=
EXTT7=
EXTT8=
EXTT9=
EXTT10=
EXTT11=
EXTT12=
EXTT13=
EXTT14=
EXTT15=
EXTT16=
EXTT17=
EXTT18=
EXTT19=
EXTT20=
EXTT21=
EXTT22=
PLAYORDER=
